<svg xmlns="http://www.w3.org/2000/svg" viewBox="0 0 768 736.33"><defs><style>.a{fill:#f4e9d2;}.b{fill:#fff;}</style></defs><rect class="a" y="482.33" width="768" height="254"/><path d="M308.9,686.23c-2.71-11.7-3.72-25.2-3.72-39.9,0-40.5,13.52-115.5,39.89-115.5,11.5,0,15.22,18.9,15.22,29.7,0,16.5-6.43,69-26.37,109.8,7.44,15.3,19.27,25.8,38.2,25.8,3.38,0,10.14-3,12.85-3s4.39,1.2,4.39,3.3a6.75,6.75,0,0,1-2,4.2s-18.26,21.6-41.25,21.6c-15.89,0-26-8.4-32.12-21.6-11.83,12.9-26.71,21.3-44.63,21.3-18.59,0-24.34-14.7-24.34-28.8,0-24,39.56-51.3,52.74-51.3,2,0,3.38.9,4.06,3.3,0,3.3-6.76,6.3-8.79,7.5-11.5,6.3-13.19,13.5-13.19,18.6,0,18,14.54,19.2,17.58,19.2C301.46,690.43,305.18,688.93,308.9,686.23ZM329.18,658c12.51-28.2,19.61-66.3,19.61-76.8,0-22.8-3.72-31.8-9.12-31.8-11.84,0-17.59,34.8-17.59,48.3C322.08,616.33,323.44,639.13,329.18,658Z" transform="translate(0 -31.67)"/><path d="M492.14,659.23c2,0,2.7.9,2.7,2.1,0,5.1-12.51,17.7-19.61,17.7-8.45,20.1-32.45,46.2-57.13,46.2-14.88,0-28.4-8.1-28.4-28.2,0-16.5,19.94-45.3,39.22-45.3v-1.2c0-9,7.77-14.7,17.58-14.7,18.59,0,26.7,10.8,31.44,24,.67,2.1,1.35,2.7,2.7,2.7C484,662.53,487.4,659.23,492.14,659.23Zm-62.89-4.8c-3,2.1-5.41,8.4-5.41,15,0,10.2,9.47,22.8,20.29,22.8,16.23,0,20.62-8.7,20.62-12.3C442.1,679.93,430.94,667.93,429.25,654.43Z" transform="translate(0 -31.67)"/><path d="M515.46,726.13c-17.58,0-34.14-9.6-34.14-27.6,0-27,30.76-64.5,68.63-64.5,8.45,0,14.2,5.1,14.2,12,0,10.5-13.86,23.7-25,23.7a2.67,2.67,0,0,1-2.37-2.4c0-3.9,5.07-4.2,5.07-9.6,0-5.1-4.05-10.5-8.11-10.5-12.51,0-20,12-20,24.9,0,14.4,9.81,25.8,26.37,25.8,14.88,0,37.87-34.5,74.05-34.5s74,31.5,105.82,31.5c11.15,0,21.64-3.9,31.1-14.4,4.4,0,6.76,8.7,6.76,9.3-13.86,26.4-33.81,34.5-56.12,34.5-37.53,0-82.16-23.1-117.65-23.1-10.15,0-19.61,1.8-27.73,6.9C542.85,715.93,533.38,726.13,515.46,726.13Z" transform="translate(0 -31.67)"/><path d="M51.92,220.32q-12.73,0-20.57-6.12a35.34,35.34,0,0,1-11.52-16.42,65.81,65.81,0,0,1-3.68-22.29,98.86,98.86,0,0,1,3.19-24.14,111,111,0,0,1,9.43-24.5,98.79,98.79,0,0,1,15.31-21.56A70.89,70.89,0,0,1,65,89.86,59.57,59.57,0,0,1,91.37,84.1a51.81,51.81,0,0,1,13.48,1.72,50.25,50.25,0,0,1,11.26,4.41q.49-3.18,1.35-8t1.35-7l2.21-9.8A53.59,53.59,0,0,0,122.73,55q0-6.62-3.06-8.46c-2-1.22-5.35-1.83-9.92-1.83h-5.64l2.2-13h59.05L136.94,165.2q-1.23,5.64-2.45,13a74.82,74.82,0,0,0-1.22,11.76c0,3.76.89,6.54,2.69,8.33a8.2,8.2,0,0,0,5.88,2.7,18.07,18.07,0,0,0,7-1.6,39.77,39.77,0,0,0,6.74-3.55l5.39,9.56a77.86,77.86,0,0,1-16.17,10.16,50.75,50.75,0,0,1-22.54,4.78q-10.53,0-17.27-4.9t-6.74-14.7a71.9,71.9,0,0,1,.49-8.7q.5-4,1.22-7.22H98.48Q89.17,203.67,78.14,212T51.92,220.32Zm14.71-19.6q7.34,0,14.7-7.84A84,84,0,0,0,94.8,172.79a102.68,102.68,0,0,0,8.82-25.48l8.57-40.67a14.65,14.65,0,0,0-7.1-5.14A26.24,26.24,0,0,0,96,99.78,24.2,24.2,0,0,0,81,104.93a47.77,47.77,0,0,0-11.88,13.72,100.66,100.66,0,0,0-8.7,18.74,124.74,124.74,0,0,0-5.27,20.21,109.06,109.06,0,0,0-1.71,18.13q0,14,3.79,19.48T66.63,200.72Z" transform="translate(0 -31.67)"/><path d="M231,220.32q-23,0-37.49-12.74t-14.45-38.71a90.72,90.72,0,0,1,4.9-28.54,92.32,92.32,0,0,1,14.7-27.56,74.86,74.86,0,0,1,25-20.71q15.18-7.95,35.77-8a61.16,61.16,0,0,1,25.72,5.27A41.72,41.72,0,0,1,303.66,106q7,11.39,7,29.52a95.55,95.55,0,0,1-19,55.62,74,74,0,0,1-24.75,21.07Q251.85,220.33,231,220.32Zm4.41-17.64a21.1,21.1,0,0,0,14-5.14,45.19,45.19,0,0,0,10.66-13.72,99.7,99.7,0,0,0,7.47-18.62,149.63,149.63,0,0,0,4.41-19.85,120,120,0,0,0,1.47-17.64q0-14.44-5-20.82a16.39,16.39,0,0,0-13.6-6.37q-9.32,0-16.53,7.59a61.54,61.54,0,0,0-12,19.23A127.59,127.59,0,0,0,219,151.72a123.38,123.38,0,0,0-2.45,23q0,15.19,5,21.56T235.43,202.68Z" transform="translate(0 -31.67)"/><path d="M384.63,220.32a64.37,64.37,0,0,1-27.19-5.63,46,46,0,0,1-19.6-16.79q-7.35-11.15-7.35-28.29a87.32,87.32,0,0,1,5.14-28.42,95.81,95.81,0,0,1,15.31-27.93,79.09,79.09,0,0,1,25.24-21.07q15.06-8.09,34.91-8.09,20.34,0,29.65,7.72t9.31,18.25q0,7.61-6.86,14.09t-23,6.49q0-13-4.53-22.42T402.27,98.8a16.77,16.77,0,0,0-11.64,4.9,49.54,49.54,0,0,0-9.55,12.86,90.74,90.74,0,0,0-7.1,17.52,164.53,164.53,0,0,0-4.42,19,103.45,103.45,0,0,0-1.59,17q0,14.94,6.86,23.27t20.09,8.33q13,0,21.07-6.37a65.06,65.06,0,0,0,13.23-13.72,12.33,12.33,0,0,1,2.57,4.29,17.62,17.62,0,0,1,1.11,6.49q0,6.38-5,12.86T412.2,216Q401.54,220.32,384.63,220.32Z" transform="translate(0 -31.67)"/><rect y="215.33" width="768" height="267"/><path class="b" d="M153.5,412.2c0-48.67,21.05-76.56,58-76.56,23.25,0,35.82,9.57,38.29,29h2.73V278.21h29V483.29l-26,1.37L253,460.87h-3.28C247.83,477.55,233.07,486,211.19,486,174.55,486,153.5,459.78,153.5,412.2Zm62.34,49.22c24.61,0,36.64-8.21,36.64-24.61v-35c0-27.89-12.31-41.56-36.91-41.56-21.33,0-33.36,18.86-33.36,51.95C182.21,444.74,193.69,461.42,215.84,461.42Z" transform="translate(0 -31.67)"/><path class="b" d="M323,410.83c0-47.85,23.24-75.19,63.43-75.19S449.9,363,449.9,410.83,426.66,486,386.46,486,323,458.68,323,410.83Zm96.79,0c0-31.44-12-49.22-33.36-49.22s-33.36,17.78-33.36,49.22,12,49.22,33.36,49.22S419.82,442.28,419.82,410.83Z" transform="translate(0 -31.67)"/><path class="b" d="M487.09,410.56c0-47.31,26.39-74.92,73.55-74.92,28.17,0,49.22,10.93,57.84,30.07l-22.29,16.82c-8.2-13.26-21.46-20.92-36.64-20.92-26.8,0-42.38,17.23-42.38,47.58,0,33.09,17.22,50.86,47.85,50.86a272.89,272.89,0,0,0,42.65-3.55L611,481.92c-15.86,3.29-33.09,4.11-49.22,4.11C514.16,486,487.09,459.23,487.09,410.56Z" transform="translate(0 -31.67)"/></svg>